<?xml version="1.0" encoding="UTF-8" standalone="no"?>
<!-- Created with Inkscape (http://www.inkscape.org/) -->

<svg
   width="48mm"
   height="48mm"
   viewBox="0 0 48 48"
   version="1.1"
   id="svg1"
   inkscape:version="1.4.2 (ebf0e940d0, 2025-05-08)"
   sodipodi:docname="camera-dark.svg"
   xmlns:inkscape="http://www.inkscape.org/namespaces/inkscape"
   xmlns:sodipodi="http://sodipodi.sourceforge.net/DTD/sodipodi-0.dtd"
   xmlns="http://www.w3.org/2000/svg"
   xmlns:svg="http://www.w3.org/2000/svg">
  <sodipodi:namedview
     id="namedview1"
     pagecolor="#ffffff"
     bordercolor="#000000"
     borderopacity="0.25"
     inkscape:showpageshadow="2"
     inkscape:pageopacity="0.0"
     inkscape:pagecheckerboard="0"
     inkscape:deskcolor="#d1d1d1"
     inkscape:document-units="mm"
     inkscape:zoom="4.325982"
     inkscape:cx="76.745581"
     inkscape:cy="98.35917"
     inkscape:window-width="2239"
     inkscape:window-height="1268"
     inkscape:window-x="0"
     inkscape:window-y="0"
     inkscape:window-maximized="0"
     inkscape:current-layer="layer1" />
  <defs
     id="defs1" />
  <g
     inkscape:label="Ebene 1"
     inkscape:groupmode="layer"
     id="layer1">
    <path
       style="fill:none;stroke:#860000;stroke-width:1.365;stroke-opacity:0"
       d="m 10.458608,16.513592 c 0.08155,-0.06116 0.305807,-0.101936 0.244646,-0.183485 -0.06116,-0.08155 -0.346582,0.183485 -0.244646,0.183485 0.232449,0 0.447267,-0.127108 0.672776,-0.183485 0.31474,-0.07869 1.065014,0.0084 1.28439,0 0.611502,-0.02352 1.223467,-0.03458 1.834844,-0.06116 0.113563,-0.0049 0.883285,-0.0953 0.917421,-0.06116 0.01441,0.01441 -0.01441,0.04675 0,0.06116 0.02883,0.02883 0.08277,-0.0099 0.122323,0 0.367684,0.09192 0.721035,0.206658 1.100907,0.244646 0.08114,0.0081 0.164206,-0.01341 0.244645,0 0.191662,0.03194 0.425049,0.136843 0.611615,0.183484 0.189004,0.04725 0.471949,0.08885 0.672776,0.122323 0.160878,0.02681 0.327453,-0.02023 0.489291,0 0.06397,0.008 0.119663,0.05204 0.183485,0.06116 0.100911,0.01441 0.214633,-0.04559 0.305807,0 0.02579,0.01289 0.04827,0.08695 0.06116,0.06116 0.201232,-0.402463 0.08415,-0.436328 0.122323,-0.85626 0.0076,-0.08371 0.04927,-0.161432 0.06116,-0.244646 0.05074,-0.355193 -0.03469,-0.534032 0.06116,-0.917421 0.01483,-0.05934 -0.04325,-0.140237 0,-0.183485 0.01441,-0.01441 0.04675,0.01442 0.06116,0 0.02883,-0.02883 0,-0.08155 0,-0.122322 0,-0.266289 -0.02077,-0.54931 0.06116,-0.795099 0.03057,-0.0917 0.143116,-0.204887 0.183485,-0.305808 0.05198,-0.129961 0.439436,-0.98989 0.489291,-1.039744 0.01441,-0.01441 0.05204,0.01823 0.06116,0 0.01824,-0.03647 -0.01824,-0.08585 0,-0.122323 0.147907,-0.295813 0.09474,-0.006 0.183485,-0.183485 0.02883,-0.05766 0.02799,-0.128202 0.06116,-0.183484 0.06328,-0.105463 0.135531,-0.148738 0.183485,-0.244646 0.04559,-0.09117 0.172566,-0.111405 0.244645,-0.183484 0.188228,-0.188228 0.402274,-0.450507 0.550454,-0.672776 0.02529,-0.03793 0.02893,-0.09009 0.06116,-0.122323 0.01441,-0.01441 0.04675,0.01441 0.06116,0 0.02883,-0.02883 -0.02883,-0.09349 0,-0.122323 0.01441,-0.01441 0.04293,0.0091 0.06116,0 0.06575,-0.03287 0.131507,-0.07034 0.183484,-0.122323 0.131711,-0.131711 0.203005,-0.305157 0.366969,-0.42813 0.0951,-0.07133 0.211972,-0.1105012 0.305807,-0.1834841 0.252023,-0.1960179 0.454115,-0.4437211 0.733938,-0.6116145 0.117271,-0.070363 0.251928,-0.1095298 0.366968,-0.1834843 0.662337,-0.4257879 0.315729,-0.2609726 0.856261,-0.7339375 0.03431,-0.030019 0.09009,-0.028927 0.122322,-0.061161 0.01442,-0.014417 -0.01441,-0.046746 0,-0.061162 0.02135,-0.021349 0.170791,0.025387 0.183485,0 0.01824,-0.03647 -0.02262,-0.088396 0,-0.1223229 0.0693,-0.1039564 0.156776,-0.039194 0.244645,-0.061161 0.295346,-0.073836 -0.003,-0.029065 0.183485,-0.1223229 0.03796,-0.018979 0.217439,0 0.244646,0 0.2895,0 0.632107,-0.038042 0.917421,0 0.418856,0.055847 0.812897,0.2146223 1.223229,0.3058072 0.504161,0.112036 0.97736,0.2772029 1.467874,0.4281302 0.266332,0.1457259 0.576673,0.099608 0.85626,0.1834844 0.192323,0.057697 0.362448,0.1741437 0.550455,0.2446459 0.07871,0.029515 0.185206,0.00172 0.244645,0.061161 0.01442,0.014415 -0.01823,0.052044 0,0.061161 0.07518,0.037592 0.167383,0.028049 0.244647,0.061162 0.24783,0.1062127 0.640323,0.3825017 0.85626,0.5504529 0.204825,0.1593086 0.35111,0.3843346 0.550453,0.5504526 1.367104,0.976504 -0.301281,-0.273892 0.672774,0.611615 0.12977,0.117971 0.30412,0.181797 0.42813,0.305807 0.175969,0.175969 0.266179,0.422668 0.428131,0.611615 0.331586,0.386849 0.632621,0.796025 0.917424,1.223229 0.233653,0.350482 0.380918,0.754864 0.611613,1.100906 0.142306,0.213459 0.175927,0.481733 0.366969,0.672776 0.03224,0.03224 0.09009,0.02893 0.122323,0.06116 0.03616,0.03616 0.10582,0.272803 0.122322,0.305807 0.12727,0.25454 -0.0042,-0.06538 0.122325,0.06116 0.02827,0.02827 -0.01847,0.146556 0,0.183484 0.03764,0.07528 0.139284,0.32277 0.183483,0.366969 0.01442,0.01441 0.0442,-0.01131 0.06116,0 0.141142,0.09409 0.225827,0.272874 0.366969,0.366969 0.01696,0.01131 0.04675,-0.01441 0.06116,0 0.01442,0.01441 -0.01442,0.04675 0,0.06116 0.03503,0.03503 0.891535,0 1.039744,0 1.596115,0 -0.443058,0.01317 1.712521,-0.06116 0.244501,-0.0084 0.48977,0.01526 0.733938,0 0.08389,-0.0052 0.161102,-0.05188 0.244647,-0.06116 0.36376,-0.04042 0.736843,-0.02071 1.100905,-0.06116 0.347308,-0.03859 0.686117,-0.161383 1.039743,-0.183485 0.183129,-0.01145 0.367724,0.01661 0.550455,0 0.0454,-0.0041 0.07907,-0.04675 0.122323,-0.06116 0.210417,-0.07014 0.540501,0.04495 0.733938,0.122323 0.269147,0.107659 0.815001,0.906018 0.917421,1.162067 0.15761,0.394026 0.223539,0.828799 0.36697,1.223229 0.04674,0.128528 0.140234,0.237226 0.183483,0.366969 0.08393,0.251804 0.0796,0.538773 0.122322,0.795099 0.04418,0.265059 0.139512,0.531267 0.183486,0.795099 0.01005,0.06033 -0.0168,0.124676 0,0.183484 0.02506,0.08767 0.100208,0.156194 0.122322,0.244646 0.04455,0.178215 0.02684,1.062197 0,1.223229 -0.08695,0.521707 -0.30235,0.964749 -0.42813,1.467875 -0.197332,0.789327 -0.457425,1.611063 -0.733938,2.385296 -0.03067,0.08586 -0.09349,0.158151 -0.122323,0.244646 -0.07644,0.229319 -0.107045,0.504618 -0.183483,0.733938 -0.146124,0.438367 -0.269631,0.891312 -0.366969,1.345551 -0.122878,0.573424 -0.225097,1.145027 -0.366969,1.712521 -0.194331,0.777325 0.09491,-0.08509 -0.122322,0.856261 -0.02469,0.106976 -0.09851,0.198633 -0.122325,0.305805 -0.05113,0.230077 -0.02008,0.407125 -0.122322,0.611616 -0.01929,0.03857 -0.05605,0.591167 -0.06116,0.611614 -0.04225,0.168986 -0.132258,0.322807 -0.183484,0.489291 -0.03355,0.10904 -0.08029,0.588722 -0.122324,0.672777 -0.0091,0.01823 -0.04674,-0.01442 -0.06116,0 -0.03058,0.03058 0.03058,0.152903 0,0.183483 -0.01442,0.01442 -0.04387,-0.0108 -0.06116,0 -0.722466,0.451544 -0.127031,0.236303 -1.100907,0.550456 -0.840997,0.271287 -1.247727,0.427677 -2.079487,0.489291 -0.264309,0.01958 -0.530617,-0.01707 -0.7951,0 -0.368461,0.02376 -0.732163,0.103412 -1.100907,0.122322 -0.773695,0.03968 -1.55103,0.04988 -2.324135,0 -0.287718,-0.01857 -0.569372,-0.09363 -0.85626,-0.122322 -1.270037,-0.127005 -0.685789,-0.01577 -1.957165,-0.06116 -0.35577,-0.0127 -0.904812,-0.137078 -1.284391,-0.06116 -0.555932,0.111189 -1.142219,0.120118 -1.712521,0.183486 -0.960144,0.106683 -1.907093,0.267107 -2.874589,0.305805 -1.879018,0.07516 0.284985,-0.07923 -0.978582,0.06116 -0.180576,0.02005 -0.370672,-0.02569 -0.550453,0 -0.352091,0.0503 -0.154065,0.08929 -0.550453,0.122322 -1.004975,0.08375 -2.056001,-0.0084 -3.058073,-0.06116 -0.955147,-0.05027 -1.92005,0.05966 -2.874588,0 -0.602559,-0.03766 -1.236882,-0.108741 -1.834843,-0.183486 -0.853058,-0.106632 -1.672659,-0.357769 -2.50762,-0.550452 -1.521797,-0.351184 0.294231,0.0843 -1.223229,-0.183483 -0.228912,-0.0404 -0.442663,-0.150612 -0.672776,-0.183486 -0.552807,-0.07897 -0.933958,0.08164 -1.467875,-0.244645 C 10.299194,33.425849 9.6768498,32.862895 9.1742174,32.293245 9.0204239,32.118945 8.9046917,31.912726 8.7460872,31.742792 8.6178386,31.605384 8.4382863,31.52022 8.3179572,31.375823 8.1252535,31.14458 8.0733576,30.819315 7.889827,30.580724 7.7843527,30.443609 7.6451811,30.33608 7.5228584,30.213757 7.3801482,30.030271 7.2298366,29.852456 7.0947282,29.663302 6.9660396,29.691613 6.9011299,29.25909 6.8500823,29.174011 6.8204148,29.124566 6.757427,29.101134 6.7277596,29.051689 6.6246673,28.879868 6.5697136,28.587835 6.4219523,28.440075 6.3897173,28.407839 6.3318643,28.411148 6.2996293,28.378912 6.2082137,28.287498 6.0382731,28.008156 5.9938221,27.88962 5.866076,27.548964 5.8497316,27.14326 5.8103378,26.788716 c -0.079053,-0.71148 -0.061162,-1.422812 -0.061162,-2.140652 0,-0.472996 0.031694,-0.942437 -0.061161,-1.406713 -0.1171191,-0.585596 -0.2320094,-1.1833 -0.3058073,-1.773682 -0.040875,-0.327003 -0.020307,-0.651738 -0.061161,-0.978583 -0.015994,-0.127944 -0.094352,-0.2411 -0.122323,-0.366969 C 5.0020973,19.2373 4.5871087,18.470831 4.5871087,17.553336 c 0,-0.107103 -0.129649,-0.848934 -0.061161,-0.917422 0.028832,-0.02883 0.085853,0.01824 0.1223227,0 0.5970396,-0.298519 0.866177,-0.252649 1.5901976,-0.366968 0.4502923,-0.0711 0.8942634,-0.180176 1.345552,-0.244646 1.5551637,-0.222166 0.1625256,0.09698 1.2843905,-0.183485 0.027825,-0.007 0.4783126,-0.133301 0.5504531,-0.06116 0.014415,0.01441 -0.018235,0.05204 0,0.06116 0.03647,0.01824 0.085853,-0.01823 0.1223227,0 0.018235,0.0091 -0.016962,0.04985 0,0.06116 0.053642,0.03576 0.128202,0.02799 0.1834846,0.06116 0.049446,0.02967 0.076192,0.08772 0.1223227,0.122323 0.1990854,0.149314 0.4077424,0.28542 0.6116144,0.428131 z"
       id="path1" />
    <path
       style="fill:none;stroke:#ffffff;stroke-width:1.365;stroke-opacity:1"
       d="m 7.7063427,25.565486 c 0.020386,-0.163097 0.061161,-0.324925 0.061161,-0.489292 0,-0.296275 -0.090504,-0.699642 -0.1834844,-0.978583 -0.061617,-0.184852 0.04749,-0.421653 0,-0.611614 -0.1004485,-0.401794 -0.066131,0.06268 -0.1223229,-0.611615 -0.1050071,-1.260085 0.061162,-2.553567 0.061162,-3.79201 0,-0.391598 -0.048569,-0.834682 0,-1.223229 0.080502,-0.644019 0.061161,0.262842 0.061161,-0.366968 0,-0.08099 -0.00912,-0.724817 0,-0.733938 0.014414,-0.01441 0.046746,0.01441 0.061161,0 0.014417,-0.01441 -0.014414,-0.04675 0,-0.06116 0.014417,-0.01442 0.044198,0.01131 0.061162,0 0.2837527,0.05233 0.070346,-0.131507 0.122323,-0.183484 0.014414,-0.01442 0.046746,0.01441 0.061161,0 0.014414,-0.01442 -0.014414,-0.04675 0,-0.06116 0.074526,-0.07453 0.2312808,-0.108958 0.3058073,-0.183484 0.032235,-0.03224 0.02323,-0.09704 0.061161,-0.122323 0.033926,-0.02262 0.085853,0.01823 0.122323,0 0.011925,-0.006 0.047891,-0.109052 0.061161,-0.122323 0.1254985,-0.125499 0.6860405,-0.277437 0.8562605,-0.305807 0.2312977,-0.03855 1.1191338,-0.04528 1.3455518,0 0.06322,0.01264 0.119335,0.05475 0.183485,0.06116 0.341485,0.03415 2.251582,0.04872 2.446458,0 0.177662,-0.04442 0.359819,-0.101141 0.550453,-0.122323 0.261455,-0.02905 0.535214,-0.01785 0.795099,-0.06116 0.06359,-0.0106 0.122322,-0.04078 0.183484,-0.06116 0.101936,-0.02039 0.202655,-0.04827 0.305807,-0.06116 0.06069,-0.0076 0.124149,0.01483 0.183484,0 0.06451,-0.01613 0.534905,-0.267452 0.611615,-0.305808 0.220332,-0.110166 0.446355,-0.208769 0.672776,-0.305807 0.07726,-0.03311 0.185207,-0.0017 0.244646,-0.06116 0.04018,-0.04019 0.230866,-0.458289 0.244645,-0.489292 0.277818,-0.625089 0.244646,-1.232632 0.244646,-1.896005 0,-0.175609 -0.02481,-0.376812 0,-0.550453 0.02561,-0.17925 0.06803,-0.326412 0.122323,-0.489291 0.033,-0.099 -0.01593,-0.2714 0,-0.366969 0.06331,-0.379859 0.301649,-1.5109822 0.489292,-1.7736822 0.151238,-0.2117336 0.805779,-0.9005949 1.039744,-0.9785832 0.03868,-0.012893 0.08585,0.018235 0.122323,0 0.122323,-0.061161 0.09174,-0.1223229 0.183485,-0.1834843 0.230117,-0.1534117 0.01294,0.00504 0.244646,-0.061161 0.105563,-0.030161 0.200649,-0.090776 0.305807,-0.122323 0.40032,-0.1200962 0.814728,-0.0909 1.223229,-0.1223229 0.531399,-0.040877 1.060482,-0.1393413 1.590197,-0.1834844 0.539517,-0.04496 1.109774,0 1.65136,0 0.76238,0 1.66412,-0.00425 2.385295,-0.2446459 0.07425,-0.024749 0.232248,0 0.305808,0 0.608219,0 1.1196,-0.012954 1.712521,0.061162 0.109471,0.013684 0.432575,-0.058939 0.550452,0 0.165388,0.082693 0.366186,0.1097773 0.550455,0.1834843 0.47403,0.1896129 0.958236,0.4281533 1.406713,0.6727759 0.297005,0.1620041 0.480473,0.347681 0.733936,0.5504532 0.148526,0.1188194 0.343953,0.1895353 0.489294,0.3058073 0.41851,0.3348082 -0.09817,0.046535 0.489291,0.3669686 0.339257,0.1850504 0.547931,0.3192073 0.85626,0.5504536 0.153863,0.115399 0.34326,0.180639 0.489292,0.305807 0.05581,0.04784 0.07034,0.131507 0.122322,0.183484 0.112591,0.112592 0.242631,0.206338 0.366969,0.305808 0.07119,0.05696 0.180176,0.05785 0.244644,0.122322 0.103582,0.103581 0.0799,0.141066 0.183486,0.244646 0.312558,0.312558 -0.0853,-0.256448 0.244644,0.183485 0.281919,0.375891 0.551802,0.971201 0.672778,1.406713 0.07428,0.267392 0.07035,0.535267 0.122322,0.795099 0.0089,0.0447 0.05222,0.07762 0.06116,0.122323 0.05537,0.276855 0.05412,0.658696 0.183486,0.917422 0.01289,0.02579 0.05045,0.03439 0.06116,0.06116 0.03122,0.07805 0.02357,0.169462 0.06116,0.244646 0.0091,0.01824 0.04675,-0.01441 0.06116,0 0.01442,0.01442 -0.01442,0.04674 0,0.06116 0.01442,0.01441 0.04138,-0.0049 0.06116,0 0.143989,0.036 0.281728,0.09792 0.42813,0.122323 0.710989,0.118498 1.424107,0.227639 2.140651,0.305807 0.405845,0.04427 0.815486,0.04078 1.22323,0.06116 0.448516,0.06116 0.896173,0.129014 1.345552,0.183484 0.223546,0.0271 0.448164,0.04512 0.672774,0.06116 0.01574,0.0011 0.254651,-0.02192 0.305808,0 0.346578,0.148533 0.652862,0.364326 0.978583,0.550453 0.366533,0.209446 1.277205,0.572054 1.529038,1.039744 0.09169,0.170292 0.119591,0.367902 0.183483,0.550453 0.22057,0.630197 0.366197,1.239499 0.489291,1.896005 0.149204,0.19277 0.02748,0.409514 0.06116,0.611615 0.01061,0.06359 0.05317,0.119512 0.06116,0.183484 0.02782,0.222527 -0.0223,0.44963 0,0.672776 0.0084,0.08364 0.05355,0.160933 0.06116,0.244646 0.02585,0.284248 -0.02371,0.571826 0,0.85626 0.0086,0.103596 0.05175,0.20228 0.06116,0.305807 0.0349,0.383956 -0.02265,0.777069 0,1.162068 0.0414,0.703885 0.115605,1.432896 0.06116,2.140651 -0.0095,0.123645 -0.05165,0.243323 -0.06116,0.366968 -0.0172,0.223598 0.03172,0.450772 0,0.672776 -0.0091,0.06382 -0.05404,0.119409 -0.06116,0.183486 -0.05546,0.499152 0.08252,1.033941 0,1.529035 -0.01061,0.06359 -0.05404,0.119409 -0.06116,0.183483 -0.07582,0.682368 0.09705,1.400164 0,2.07949 -0.0091,0.06382 -0.05205,0.119663 -0.06116,0.183486 -0.03489,0.244266 -0.0095,0.414504 -0.06116,0.672774 -0.05884,0.294212 0.0425,0.619917 0,0.917422 -0.01471,0.10291 -0.04077,0.203872 -0.06116,0.305808 0,0.122322 0.01352,0.245393 0,0.366969 -0.02879,0.259157 -0.306305,0.514652 -0.42813,0.733936 -0.04428,0.0797 -0.06228,0.176032 -0.122322,0.244647 -0.433433,0.49535 -1.289368,0.794753 -1.896004,0.978582 -1.217565,0.368959 -2.519294,0.611617 -3.792011,0.611617 -0.976178,0 -1.960309,-0.03484 -2.935751,0 -1.148511,0.04102 -0.373869,0.09424 -1.712521,0.183483 -0.284787,0.019 -0.57105,-0.01098 -0.856257,0 -1.058223,0.0407 -2.119014,0.09776 -3.180398,0.06116 -1.285211,-0.04432 -2.573919,-0.164693 -3.853169,-0.244644 -1.333563,-0.08335 -2.647497,0.130362 -3.975496,0.183483 -0.692908,0.02772 -1.386254,0.04339 -2.079489,0.06116 -0.346468,0.0089 -0.694676,-0.03235 -1.039745,0 -0.310502,0.02911 -0.607613,0.147738 -0.917421,0.183486 -0.222781,0.02569 -0.448683,-0.0086 -0.672776,0 -1.922773,0.07395 0.134967,0.05483 -1.957166,0.122322 -0.853902,0.02755 -1.714259,0 -2.568782,0 -0.943464,0 -1.871795,-0.02021 -2.813426,-0.06116 -1.4364424,-0.06245 0.01434,0.07626 -0.672776,-0.06116 -0.08495,-0.01699 -0.229356,0.02548 -0.305807,0 -0.06973,-0.02326 -0.115235,-0.09502 -0.1834849,-0.122325 C 9.5785407,36.112428 9.1250316,36.091243 8.7460872,35.90177 8.3207819,35.689119 7.9113313,35.442051 7.5228584,35.167834 7.1629325,34.913768 6.8550853,34.550699 6.4831136,34.311574 6.3297262,34.212966 6.1353451,34.181915 5.9938221,34.066927 5.7243704,33.847997 5.4872942,33.576617 5.3210462,33.271827 5.0516644,32.777961 4.8275253,32.171573 4.7094317,31.62047 c -0.04293,-0.20034 0.00363,-0.41724 -0.061162,-0.611616 -0.00645,-0.01934 -0.046746,0.01442 -0.061161,0 -0.057664,-0.05766 0,-0.163097 0,-0.244644 0,-0.316733 -0.038934,-0.66711 0,-0.978583 0.010427,-0.08341 0.040774,-0.163097 0.061161,-0.244647 0.020386,-0.101936 0.049682,-0.202488 0.061162,-0.305808 0.025882,-0.232931 0.013298,-0.515887 0.1223229,-0.733936 0.1367425,-0.273486 0.2803557,-0.590266 0.42813,-0.85626 0.1385197,-0.249335 0.1911691,-0.198856 0.3058073,-0.42813 0.1632534,-0.326507 0.345224,-0.773355 0.6116145,-1.039746 0.032235,-0.03223 0.081549,-0.04077 0.1223229,-0.06116 0.122323,-0.14271 0.2479453,-0.282657 0.3669687,-0.42813 0.06455,-0.07889 0.1114049,-0.172567 0.1834843,-0.244646 0.07208,-0.07208 0.1630973,-0.122323 0.2446459,-0.183484 0.2038715,0.101935 0.4385532,0.454145 0.6116145,0.305807 0.1866937,-0.160023 -0.4203374,-0.733938 -0.061162,-0.733938"
       id="path2" />
    <path
       style="fill:none;stroke:#ffffff;stroke-width:1.365;stroke-opacity:1"
       d="m 34.739704,23.730642 c -0.197855,-0.59692 -0.106722,-1.237586 -0.305808,-1.834843 -0.0065,-0.01934 0.01442,-0.04675 0,-0.06116 -0.01442,-0.01441 -0.04675,0.01441 -0.06116,0 -0.222967,-0.222967 -0.241858,-0.600138 -0.42813,-0.85626 -0.187307,-0.257548 -0.378251,-0.517242 -0.611614,-0.733937 -0.170339,-0.158171 -0.379103,-0.271059 -0.550455,-0.42813 -0.07514,-0.06888 -0.09867,-0.188102 -0.183483,-0.244646 -0.05089,-0.03393 -0.125463,0.01934 -0.183483,0 -0.03868,-0.01289 0.02883,-0.09349 0,-0.122323 -0.02771,-0.0277 -0.358675,-0.271079 -0.428131,-0.305807 -0.267433,-0.133716 -0.387326,-0.130466 -0.672777,-0.244646 -0.274116,-0.109646 -0.482507,-0.288447 -0.733938,-0.42813 -0.898438,-0.499133 0.102494,0.07494 -0.489291,-0.122323 -0.06973,-0.02325 -0.116314,-0.09247 -0.183484,-0.122323 -0.295193,-0.131197 -0.554111,-0.133126 -0.85626,-0.183484 -0.209804,-0.03497 -0.395671,-0.16189 -0.611614,-0.183485 -0.121716,-0.01217 -0.247779,0.02751 -0.366969,0 -0.151289,-0.03491 -0.275881,-0.153034 -0.42813,-0.183484 -0.260654,-0.05213 -0.530744,-0.03334 -0.795099,-0.06116 -0.330417,-0.03478 -0.654146,-0.118597 -0.978584,-0.183485 -0.554894,-0.110979 -1.843301,0.08437 -2.324135,0.244646 -0.129743,0.04325 -0.238441,0.136747 -0.366969,0.183484 -0.09769,0.03553 -0.210258,0.02021 -0.305807,0.06116 -0.053,0.02271 -0.07619,0.08773 -0.122323,0.122323 -0.03647,0.02735 -0.09009,0.02893 -0.122323,0.06116 -0.01441,0.01441 0.01592,0.04843 0,0.06116 -0.09283,0.07426 -0.209667,0.113564 -0.305807,0.183484 -0.381786,0.277663 -0.801149,0.612214 -1.100906,0.978583 -0.111055,0.135734 -0.187301,0.29885 -0.305807,0.42813 -0.107595,0.117376 -0.274419,0.176238 -0.366969,0.305807 -0.116707,0.16339 -0.150156,0.373286 -0.244646,0.550453 -0.242318,0.454347 -0.567982,0.847686 -0.733937,1.345552 -0.213479,0.640438 -0.320201,1.309592 -0.42813,1.957167 -0.06559,0.393516 0.0331,0.825983 0,1.223229 -0.09074,1.088838 -0.10673,2.126268 0.244646,3.180395 0.118313,0.354941 0.0767,0.143039 0.244645,0.366969 0.210992,0.281323 -0.124372,-0.06424 0.122323,0.305808 0.01131,0.01696 0.04078,0 0.06116,0 0.02039,0.02037 0.04827,0.03537 0.06116,0.06116 0.0982,0.196395 0.07364,0.195961 0.244646,0.366969 0.283398,0.283398 1.338854,0.777296 1.71252,0.917422 0.102798,0.03855 0.212707,0.06414 0.305808,0.122322 0.178852,0.111783 0.125551,0.199583 0.305807,0.244647 0.20182,0.05045 0.322962,-0.02984 0.550453,0.06116 0.110374,0.04415 0.193031,0.145891 0.305807,0.183483 0.113906,0.03797 0.697269,0.05417 0.795099,0.06116 0.836011,0.05972 1.667329,0.06116 2.507619,0.06116 0.516189,0 1.07687,-0.05704 1.590198,0 0.08355,0.0093 0.161103,0.05188 0.244647,0.06116 0.66979,0.07442 1.41968,0.0096 2.079488,-0.122325 0.409495,-0.0819 0.725236,-0.27786 1.100907,-0.42813 0.276365,-0.110546 0.977315,-0.366461 1.284391,-0.489291 0.131297,-0.05252 0.478012,-0.155578 0.611613,-0.244645 0.132488,-0.08833 0.234482,-0.217485 0.366969,-0.305808 0.09598,-0.06399 0.434163,-0.189518 0.550453,-0.305808 0.299434,-0.299432 0.664003,-0.716394 0.85626,-1.100905 0.209288,-0.418573 0.329854,-1.507082 0.244647,-2.018328 -0.03759,-0.225519 -0.172614,-0.456678 -0.244647,-0.672776 -0.10093,-0.302788 -0.13784,-0.659065 -0.183483,-0.978583 -0.0058,-0.04037 0.01823,-0.08585 0,-0.122323 -0.106328,-0.212653 -0.244647,-0.407743 -0.366969,-0.611615 z"
       id="path3" />
    <path
       style="fill:none;stroke:#000000;stroke-width:1.365;stroke-opacity:1"
       d="M 4.1589785,30.397241 4.3424628,30.274918"
       id="path4" />
  </g>
</svg>
