<svg xmlns="http://www.w3.org/2000/svg" viewBox="0 0 32 32">
  <path 
     style="fill:#e0e0e0;fill-opacity:1;stroke:none" 
     d="M12.986 2c-0.108 0-0.217 0.013-0.324 0.041-0.278 0.076-0.52 0.258-0.676 0.504l-1.396 2.42-0.852 1.478c-0.153 0.266-0.158 0.59-0.014 0.86 0.144 0.27 0.407 0.457 0.704 0.502l0.28 0.043v16.154c0 0.825 0.675 1.5 1.5 1.5h15c0.825 0 1.5-0.675 1.5-1.5v-16.154l0.28-0.043c0.297-0.045 0.56-0.232 0.704-0.502 0.144-0.27 0.139-0.594-0.014-0.86l-0.852-1.478-1.396-2.42c-0.248-0.428-0.706-0.686-1.196-0.686h-8.016zM13.684 3.5h7.632l1.104 1.916 0.676 1.172h-11.224l0.676-1.172zM12.5 8.5h10v1.5h-10zM12.5 11.5h10v1.5h-10zM12.5 14.5h10v1.5h-10zM12.5 17.5h10v1.5h-10zM12.5 20.5h10v1.5h-10z"
     />
</svg>
