<svg width="100" height="100" viewBox="0 0 24 24" fill="none" xmlns="http://www.w3.org/2000/svg">
  <path d="M16 10C16 7.79086 14.2091 6 12 6C10.4668 6 9.12275 6.85613 8.44407 8.11041C8.29925 8.03876 8.13637 8 7.96667 8C7.43279 8 7 8.43279 7 8.96667C7 9.07222 7.01677 9.17386 7.04779 9.26914C6.41757 9.63827 6 10.305 6 11.0667C6 12.0838 6.75549 12.9239 7.73563 13.0504C7.9582 14.3457 9.08359 15.3333 10.4444 15.3333C10.7704 15.3333 11.0815 15.2767 11.3687 15.1729C11.8922 15.6862 12.6087 16 13.4 16C14.8359 16 16 14.8359 16 13.4C16 13.2634 15.9895 13.1293 15.9693 12.9987C17.1361 12.6526 18 11.5763 18 10.3C18 8.80883 16.8963 7.57587 15.4689 7.36421C15.8084 8.15813 16 9.05555 16 10Z" fill="black"/>
  
  <circle cx="9.5" cy="18.5" r="1.5" fill="black"/>
  <circle cx="8" cy="21" r="1" fill="black"/>
</svg>
