<?xml version="1.0" encoding="UTF-8" standalone="no"?>
<!-- Created with Inkscape (http://www.inkscape.org/) -->

<svg
   width="48mm"
   height="48mm"
   viewBox="0 0 48 48"
   version="1.1"
   id="svg1"
   inkscape:version="1.4.2 (ebf0e940d0, 2025-05-08)"
   sodipodi:docname="thinking.svg"
   xmlns:inkscape="http://www.inkscape.org/namespaces/inkscape"
   xmlns:sodipodi="http://sodipodi.sourceforge.net/DTD/sodipodi-0.dtd"
   xmlns="http://www.w3.org/2000/svg"
   xmlns:svg="http://www.w3.org/2000/svg">
  <sodipodi:namedview
     id="namedview1"
     pagecolor="#ffffff"
     bordercolor="#000000"
     borderopacity="0.25"
     inkscape:showpageshadow="2"
     inkscape:pageopacity="0.0"
     inkscape:pagecheckerboard="0"
     inkscape:deskcolor="#d1d1d1"
     inkscape:document-units="mm"
     inkscape:zoom="4.325982"
     inkscape:cx="76.629999"
     inkscape:cy="98.243589"
     inkscape:window-width="2239"
     inkscape:window-height="1268"
     inkscape:window-x="0"
     inkscape:window-y="0"
     inkscape:window-maximized="0"
     inkscape:current-layer="layer1" />
  <defs
     id="defs1" />
  <g
     inkscape:label="Ebene 1"
     inkscape:groupmode="layer"
     id="layer1">
    <path
       style="fill:none;stroke-width:1.365;stroke:#000000;stroke-opacity:0.99374133;stroke-dasharray:none"
       d="m 36.574547,7.7063427 c -1.394111,-0.2011013 -2.81141,-0.075365 -4.220141,-0.122323 -0.285988,-0.00953 -0.570323,-0.050164 -0.856261,-0.061162 -0.475816,-0.018301 -0.990663,0.047721 -1.467874,0 -0.08364,-0.00836 -0.161237,-0.050735 -0.244647,-0.061161 -0.141607,-0.017701 -0.286519,0.017701 -0.42813,0 -1.171556,-0.1464448 -2.366639,-0.00494 -3.547362,-0.061161 -0.979853,-0.04666 -2.011304,-0.1432956 -2.996911,-0.061162 -0.54924,0.04577 -1.100514,0.097285 -1.65136,0.122323 -1.034865,0.047039 -2.083053,0 -3.119233,0 -0.286118,0 -1.302725,0.071868 -1.590198,0 -0.01978,-0.00495 0.01824,-0.052044 0,-0.061161 -0.05867,-0.029334 -0.176501,0.013629 -0.244646,0 -0.542504,-0.1085008 -0.882979,-0.1223229 -1.467875,-0.1223229 -0.591227,0 -1.182454,0 -1.773682,0 -0.0315,0 -0.388923,-0.039207 -0.42813,0 -0.234674,0.2346738 -0.438102,0.4992637 -0.672776,0.7339372 -0.09231,0.092307 -0.2135,0.1523391 -0.305807,0.2446459 -0.07208,0.072079 -0.111405,0.1725663 -0.183484,0.2446459 -0.05198,0.051977 -0.135647,0.066512 -0.183485,0.1223227 -0.125168,0.1460294 -0.169808,0.3532923 -0.305807,0.4892916 -0.05108,0.05108 -0.216532,0.1272564 -0.244646,0.1834846 -0.02883,0.057664 -0.03233,0.1258207 -0.06116,0.1834843 -0.114161,0.2283216 -0.325,0.3709754 -0.42813,0.611614 -0.2052049,0.47881 -0.307495,0.983083 -0.489292,1.467875 -0.032013,0.08537 -0.097275,0.15698 -0.122323,0.244646 -0.016804,0.05881 0.013269,0.123779 0,0.183484 -0.1123479,0.505566 -0.3195201,1.007102 -0.3669686,1.529036 -0.018457,0.203035 0.025286,0.409317 0,0.611615 -0.035677,0.285417 -0.095972,0.566401 -0.1223229,0.85626 -0.027532,0.302852 0.033572,0.615271 0,0.917422 -0.032083,0.28875 -0.081488,0.570416 -0.122323,0.85626 -0.07622,0.533538 0,1.282703 0,1.834843 0,0.389497 0.076243,1.346389 0,1.65136 -0.079396,0.317585 -0.061161,-0.06529 -0.061161,0.244645 0,0.370016 0.061044,0.795805 0,1.162068 -0.0075,0.04497 -0.052221,0.07762 -0.061162,0.122323 -0.075518,0.377589 0,1.357913 0,1.773682 0,0.2557 -0.077377,0.807614 0,1.039745 0.1422556,0.426766 0.084791,0.177459 0.244646,0.550452 0.057074,0.133174 0.122592,0.245185 0.1834843,0.366969 0.027869,0.05574 0.00563,0.207626 0.061162,0.244646 0.03741,0.02494 0.2662504,0.08277 0.305807,0.122323 0.014417,0.01441 -0.014417,0.04674 0,0.06116 0.030581,0.03058 0.1529037,-0.03058 0.1834845,0 0.014415,0.01442 -0.014417,0.04675 0,0.06116 0.051396,0.0514 0.5751827,-0.0488 0.6727757,0 0.60176,0.30088 1.374696,0.12718 2.079489,0.244646 0.176112,0.02935 0.377784,-0.04317 0.550453,0 0.02797,0.007 0.03319,0.05417 0.06116,0.06116 0.03182,0.008 0.2498,-0.028 0.305807,0 0.158822,0.07941 0.227569,0.01469 0.366968,0.06116 0.0594,0.0198 0.462906,0.21826 0.489292,0.244645 0.01508,0.01508 0.151226,0.257421 0.183484,0.305808 0.237166,0.355748 -0.142474,0.648028 -0.366968,0.917421 -0.337734,0.405281 0.0064,0.02738 -0.183485,0.122322 -0.154727,0.07737 -0.283923,0.270833 -0.42813,0.36697 -0.27238,0.181586 -0.571602,0.32663 -0.85626,0.489291 -0.206427,0.117959 -0.413792,0.235087 -0.611615,0.366969 -0.04798,0.03198 -0.07075,0.09654 -0.122322,0.122322 -0.51419,0.257096 0.273639,-0.263975 -0.489292,0.244647 -0.294343,0.196228 -0.529671,0.445267 -0.795099,0.672775 -0.199817,0.171272 -0.487014,0.242369 -0.6727753,0.42813 -0.032235,0.03224 -0.028927,0.09009 -0.061162,0.122325 -0.014414,0.01442 -0.042927,-0.0091 -0.061161,0 -0.1289397,0.06447 -0.1885003,0.222014 -0.3058073,0.305805 -0.052461,0.03747 -0.1258207,0.03233 -0.1834843,0.06116 -0.1254786,0.06274 -0.1044524,0.235709 -0.2446459,0.305805 -0.03647,0.01823 -0.088396,-0.02262 -0.1223227,0 -0.037931,0.02529 -0.028927,0.09009 -0.061162,0.122322 -0.051977,0.05198 -0.122323,0.08155 -0.1834843,0.122325 -0.081549,0.101936 -0.1523391,0.2135 -0.2446457,0.305806 -0.3226006,0.322601 -0.7967789,0.550455 -0.6116145,0.550455 0.091174,0 0.1597853,-0.08899 0.2446457,-0.122325 C 8.6208496,32.22449 9.1066,32.030365 9.6023474,31.865115 10.208124,31.66319 10.82039,31.479876 11.437191,31.314662 c 0.9815,-0.262903 1.952128,-0.393033 2.93575,-0.611613 0.616087,-0.136909 1.228297,-0.315995 1.834843,-0.489294 0.518217,-0.148061 0.970994,-0.3517 1.467875,-0.550453 0.400304,-0.16012 0.826318,-0.262749 1.223229,-0.42813 0.126241,-0.0526 0.238915,-0.135464 0.366968,-0.183483 0.652358,-0.244634 1.376882,-0.344345 2.018328,-0.611616 0.168322,-0.07013 0.318187,-0.181605 0.489292,-0.244645 0.218117,-0.08036 0.452255,-0.109976 0.672776,-0.183485 0.147296,-0.0491 0.280834,-0.134385 0.42813,-0.183484 0.239234,-0.07974 0.502152,-0.08415 0.733937,-0.183483 0.21853,-0.09366 0.395745,-0.267338 0.611615,-0.366969 0.472011,-0.217853 0.993184,-0.347014 1.467875,-0.550453 0.181741,-0.07789 0.3528,-0.205115 0.550453,-0.244647 0.05997,-0.01198 0.124676,0.0168 0.183484,0 0.08767,-0.02505 0.158962,-0.09116 0.244645,-0.122322 0.357933,-0.130158 0.728212,-0.227346 1.100907,-0.305808 0.970918,-0.204403 1.813108,-0.308524 2.813426,-0.183484 0.384902,0.04811 0.701789,0.193155 1.039746,0.305807 0.407575,0.135859 0.82282,0.267967 1.223227,0.42813 0.362053,0.144822 0.15521,0.143224 0.611616,0.244647 0.0597,0.01326 0.124675,-0.0168 0.183483,0 0.08767,0.02506 0.158153,0.09349 0.244647,0.122322 0.14654,0.04885 0.334638,0.04398 0.489292,0.06116 0.649404,0.07216 1.305025,0.206285 1.957165,0.244647 0.366337,0.02154 0.733938,0 1.100907,0 0.509678,0 1.019358,0 1.529035,0 0.183486,0 0.36697,0 0.550453,0 0.08155,0 0.167283,0.0258 0.244647,0 0.17299,-0.05766 0.324657,-0.166248 0.489291,-0.244647 0.205476,-0.09785 0.957707,-0.412472 1.22323,-0.611614 0.822346,-0.61676 1.401426,-2.183658 1.467874,-3.180395 0.04433,-0.664863 0.02069,-1.363519 -0.06116,-2.018328 -0.05663,-0.453031 0,-0.951105 0,-1.406713 0,-0.546517 -0.03206,-1.106255 0,-1.65136 0.0097,-0.164082 0.05091,-0.325245 0.06116,-0.489291 0.03597,-0.575556 -0.02968,-1.137177 0.06116,-1.712521 0.02932,-0.18566 0.101568,-0.363642 0.122324,-0.550453 0.04052,-0.364724 -0.01527,-0.734255 0,-1.100906 0.04939,-1.18536 0.06116,-2.359594 0.06116,-3.547364 0,-0.554506 0.146531,-1.5782538 -0.244647,-2.0183278 -0.759691,-0.8546528 -2.311281,-1.019937 -3.363878,-1.1009061 -1.426718,-0.1097473 -0.05911,-0.00657 -1.100908,-0.122323 -0.09319,-0.010353 -0.213836,0.022992 -0.305808,0 -0.272791,-0.068198 -0.130709,-0.1010036 -0.489291,-0.061161 -0.373621,0.041513 -0.73333,0.1658794 -1.100905,0.2446459 z"
       id="path1" />
    <path
       style="fill:none;stroke:#000000;stroke-width:1.365;stroke-dasharray:none;stroke-opacity:0.993741"
       d="m 16.88056,12.905066 c 0.101936,0 0.305807,0.101935 0.305807,0 0,-0.101936 -0.407743,0 -0.305807,0 0.715834,0 1.491462,-0.07104 2.201812,0 0.24679,0.02468 0.487148,0.09764 0.733938,0.122323 0.377827,0.03778 0.781664,0 1.162067,0 0.448517,0 0.897035,0 1.345552,0 0.200162,0 0.470701,-0.03368 0.672776,0 0.281133,0.04686 0.566154,0.09595 0.85626,0.122323 0.182731,0.01661 0.368386,-0.02276 0.550453,0 0.08341,0.01043 0.160835,0.05471 0.244646,0.06116 0.501444,0.03857 1.025169,0 1.529036,0 1.267036,0 2.527622,0.0062 3.79201,0.06116 0.585465,0.02545 1.07796,-0.0025 1.65136,0.06116 0.395624,0.04396 0.825349,0 1.223227,0 0.489291,0 0.978585,0 1.467877,0 0.163097,0 0.329361,0.03199 0.489291,0 0.0447,-0.0089 0.07908,-0.04675 0.122322,-0.06116 0.218959,-0.07299 0.729713,0 0.978583,0"
       id="path2" />
    <path
       style="fill:none;stroke:#000000;stroke-width:1.365;stroke-dasharray:none;stroke-opacity:0.993741"
       d="m 22.568575,17.002883 c 0.08155,0 0.244646,0.08155 0.244646,0 0,-0.08155 -0.326195,0 -0.244646,0 0.224258,0 0.448517,0 0.672776,0 0.04111,0 0.147389,-0.01805 0.183484,0 0.02579,0.01289 0.03381,0.05204 0.06116,0.06116 0.136561,0.04552 0.353363,-0.02719 0.489292,0 0.02827,0.0057 0.03272,0.05642 0.06116,0.06116 0.100549,0.01676 0.204496,-0.01126 0.305808,0 0.08354,0.0093 0.161101,0.05188 0.244646,0.06116 0.442368,0.04915 0.905039,0.03973 1.345551,0.122323 0.943077,0.176827 -0.392251,0.09473 0.672776,0.183484 0.712007,0.05933 1.425207,0.06116 2.140651,0.06116 0.352957,0 0.749813,0.04389 1.100907,0 0.524042,-0.06551 1.006144,-0.256887 1.529035,-0.366969 0.2427,-0.0511 0.48841,-0.08725 0.733938,-0.122323 0.08073,-0.01153 0.16468,0.01599 0.244645,0 0.06765,-0.01353 0.08416,-0.06116 0.244647,-0.06116"
       id="path3" />
    <path
       style="fill:none;stroke:#000000;stroke-width:1.365;stroke-dasharray:none;stroke-opacity:0.993741"
       d="m 17.981466,21.95696 c 0.08155,-0.04077 0.28542,-0.04077 0.244646,-0.122323 -0.04078,-0.08155 -0.334904,0.135217 -0.244646,0.122323 0.230113,-0.03287 0.447267,-0.127107 0.672776,-0.183484 0.368959,-0.09224 0.846384,0.0314 1.223229,0 0.494327,-0.04119 0.976302,-0.178217 1.467875,-0.244646 0.74768,-0.101038 1.514241,-0.161453 2.262973,-0.244646 0.121575,-0.01351 0.25756,0.05471 0.366969,0 0.01824,-0.0091 -0.01934,-0.05471 0,-0.06116 0.226377,-0.07546 0.894834,-0.04742 1.100906,-0.06116 0.123736,-0.0082 0.243574,-0.04882 0.366969,-0.06116 0.565402,-0.05654 1.218629,-0.03469 1.773683,0 0.843986,0.05275 1.668065,0.180065 2.507617,0.244646 0.407078,0.03131 0.81805,0.04865 1.22323,0.122323 0.26761,0.04866 0.526801,0.138768 0.795099,0.183484 0.939835,0.156639 0.368414,0.0088 1.100905,0.06116 0.410522,0.02932 0.816391,0.13263 1.22323,0.183485 0.142711,0.01784 0.285419,-0.02379 0.42813,0 0.04497,0.0075 0.07736,0.05367 0.122322,0.06116 0.238615,0.03977 0.992725,0.0461 1.22323,0 0.150487,-0.0301 0.174111,-0.06116 0.305808,-0.06116"
       id="path4" />
  </g>
</svg>
