<?xml version="1.0" encoding="UTF-8" standalone="no"?>
<!-- Created with Inkscape (http://www.inkscape.org/) -->

<svg
   width="48mm"
   height="48mm"
   viewBox="0 0 48 48"
   version="1.1"
   id="svg1"
   inkscape:version="1.4.2 (ebf0e940d0, 2025-05-08)"
   sodipodi:docname="tool.svg"
   xmlns:inkscape="http://www.inkscape.org/namespaces/inkscape"
   xmlns:sodipodi="http://sodipodi.sourceforge.net/DTD/sodipodi-0.dtd"
   xmlns="http://www.w3.org/2000/svg"
   xmlns:svg="http://www.w3.org/2000/svg">
  <sodipodi:namedview
     id="namedview1"
     pagecolor="#ffffff"
     bordercolor="#000000"
     borderopacity="0.25"
     inkscape:showpageshadow="2"
     inkscape:pageopacity="0.0"
     inkscape:pagecheckerboard="0"
     inkscape:deskcolor="#d1d1d1"
     inkscape:document-units="mm"
     inkscape:zoom="4.325982"
     inkscape:cx="76.861161"
     inkscape:cy="98.24359"
     inkscape:window-width="2239"
     inkscape:window-height="1268"
     inkscape:window-x="0"
     inkscape:window-y="0"
     inkscape:window-maximized="0"
     inkscape:current-layer="layer1" />
  <defs
     id="defs1" />
  <g
     inkscape:label="Ebene 1"
     inkscape:groupmode="layer"
     id="layer1">
    <path
       style="fill:none;stroke:#860000;stroke-width:1.365;stroke-opacity:0"
       d="m 10.458608,16.513592 c 0.08155,-0.06116 0.305807,-0.101936 0.244646,-0.183485 -0.06116,-0.08155 -0.346582,0.183485 -0.244646,0.183485 0.232449,0 0.447267,-0.127108 0.672776,-0.183485 0.31474,-0.07869 1.065014,0.0084 1.28439,0 0.611502,-0.02352 1.223467,-0.03458 1.834844,-0.06116 0.113563,-0.0049 0.883285,-0.0953 0.917421,-0.06116 0.01441,0.01441 -0.01441,0.04675 0,0.06116 0.02883,0.02883 0.08277,-0.0099 0.122323,0 0.367684,0.09192 0.721035,0.206658 1.100907,0.244646 0.08114,0.0081 0.164206,-0.01341 0.244645,0 0.191662,0.03194 0.425049,0.136843 0.611615,0.183484 0.189004,0.04725 0.471949,0.08885 0.672776,0.122323 0.160878,0.02681 0.327453,-0.02023 0.489291,0 0.06397,0.008 0.119663,0.05204 0.183485,0.06116 0.100911,0.01441 0.214633,-0.04559 0.305807,0 0.02579,0.01289 0.04827,0.08695 0.06116,0.06116 0.201232,-0.402463 0.08415,-0.436328 0.122323,-0.85626 0.0076,-0.08371 0.04927,-0.161432 0.06116,-0.244646 0.05074,-0.355193 -0.03469,-0.534032 0.06116,-0.917421 0.01483,-0.05934 -0.04325,-0.140237 0,-0.183485 0.01441,-0.01441 0.04675,0.01442 0.06116,0 0.02883,-0.02883 0,-0.08155 0,-0.122322 0,-0.266289 -0.02077,-0.54931 0.06116,-0.795099 0.03057,-0.0917 0.143116,-0.204887 0.183485,-0.305808 0.05198,-0.129961 0.439436,-0.98989 0.489291,-1.039744 0.01441,-0.01441 0.05204,0.01823 0.06116,0 0.01824,-0.03647 -0.01824,-0.08585 0,-0.122323 0.147907,-0.295813 0.09474,-0.006 0.183485,-0.183485 0.02883,-0.05766 0.02799,-0.128202 0.06116,-0.183484 0.06328,-0.105463 0.135531,-0.148738 0.183485,-0.244646 0.04559,-0.09117 0.172566,-0.111405 0.244645,-0.183484 0.188228,-0.188228 0.402274,-0.450507 0.550454,-0.672776 0.02529,-0.03793 0.02893,-0.09009 0.06116,-0.122323 0.01441,-0.01441 0.04675,0.01441 0.06116,0 0.02883,-0.02883 -0.02883,-0.09349 0,-0.122323 0.01441,-0.01441 0.04293,0.0091 0.06116,0 0.06575,-0.03287 0.131507,-0.07034 0.183484,-0.122323 0.131711,-0.131711 0.203005,-0.305157 0.366969,-0.42813 0.0951,-0.07133 0.211972,-0.1105012 0.305807,-0.1834841 0.252023,-0.1960179 0.454115,-0.4437211 0.733938,-0.6116145 0.117271,-0.070363 0.251928,-0.1095298 0.366968,-0.1834843 0.662337,-0.4257879 0.315729,-0.2609726 0.856261,-0.7339375 0.03431,-0.030019 0.09009,-0.028927 0.122322,-0.061161 0.01442,-0.014417 -0.01441,-0.046746 0,-0.061162 0.02135,-0.021349 0.170791,0.025387 0.183485,0 0.01824,-0.03647 -0.02262,-0.088396 0,-0.1223229 0.0693,-0.1039564 0.156776,-0.039194 0.244645,-0.061161 0.295346,-0.073836 -0.003,-0.029065 0.183485,-0.1223229 0.03796,-0.018979 0.217439,0 0.244646,0 0.2895,0 0.632107,-0.038042 0.917421,0 0.418856,0.055847 0.812897,0.2146223 1.223229,0.3058072 0.504161,0.112036 0.97736,0.2772029 1.467874,0.4281302 0.266332,0.1457259 0.576673,0.099608 0.85626,0.1834844 0.192323,0.057697 0.362448,0.1741437 0.550455,0.2446459 0.07871,0.029515 0.185206,0.00172 0.244645,0.061161 0.01442,0.014415 -0.01823,0.052044 0,0.061161 0.07518,0.037592 0.167383,0.028049 0.244647,0.061162 0.24783,0.1062127 0.640323,0.3825017 0.85626,0.5504529 0.204825,0.1593086 0.35111,0.3843346 0.550453,0.5504526 1.367104,0.976504 -0.301281,-0.273892 0.672774,0.611615 0.12977,0.117971 0.30412,0.181797 0.42813,0.305807 0.175969,0.175969 0.266179,0.422668 0.428131,0.611615 0.331586,0.386849 0.632621,0.796025 0.917424,1.223229 0.233653,0.350482 0.380918,0.754864 0.611613,1.100906 0.142306,0.213459 0.175927,0.481733 0.366969,0.672776 0.03224,0.03224 0.09009,0.02893 0.122323,0.06116 0.03616,0.03616 0.10582,0.272803 0.122322,0.305807 0.12727,0.25454 -0.0042,-0.06538 0.122325,0.06116 0.02827,0.02827 -0.01847,0.146556 0,0.183484 0.03764,0.07528 0.139284,0.32277 0.183483,0.366969 0.01442,0.01441 0.0442,-0.01131 0.06116,0 0.141142,0.09409 0.225827,0.272874 0.366969,0.366969 0.01696,0.01131 0.04675,-0.01441 0.06116,0 0.01442,0.01441 -0.01442,0.04675 0,0.06116 0.03503,0.03503 0.891535,0 1.039744,0 1.596115,0 -0.443058,0.01317 1.712521,-0.06116 0.244501,-0.0084 0.48977,0.01526 0.733938,0 0.08389,-0.0052 0.161102,-0.05188 0.244647,-0.06116 0.36376,-0.04042 0.736843,-0.02071 1.100905,-0.06116 0.347308,-0.03859 0.686117,-0.161383 1.039743,-0.183485 0.183129,-0.01145 0.367724,0.01661 0.550455,0 0.0454,-0.0041 0.07907,-0.04675 0.122323,-0.06116 0.210417,-0.07014 0.540501,0.04495 0.733938,0.122323 0.269147,0.107659 0.815001,0.906018 0.917421,1.162067 0.15761,0.394026 0.223539,0.828799 0.36697,1.223229 0.04674,0.128528 0.140234,0.237226 0.183483,0.366969 0.08393,0.251804 0.0796,0.538773 0.122322,0.795099 0.04418,0.265059 0.139512,0.531267 0.183486,0.795099 0.01005,0.06033 -0.0168,0.124676 0,0.183484 0.02506,0.08767 0.100208,0.156194 0.122322,0.244646 0.04455,0.178215 0.02684,1.062197 0,1.223229 -0.08695,0.521707 -0.30235,0.964749 -0.42813,1.467875 -0.197332,0.789327 -0.457425,1.611063 -0.733938,2.385296 -0.03067,0.08586 -0.09349,0.158151 -0.122323,0.244646 -0.07644,0.229319 -0.107045,0.504618 -0.183483,0.733938 -0.146124,0.438367 -0.269631,0.891312 -0.366969,1.345551 -0.122878,0.573424 -0.225097,1.145027 -0.366969,1.712521 -0.194331,0.777325 0.09491,-0.08509 -0.122322,0.856261 -0.02469,0.106976 -0.09851,0.198633 -0.122325,0.305805 -0.05113,0.230077 -0.02008,0.407125 -0.122322,0.611616 -0.01929,0.03857 -0.05605,0.591167 -0.06116,0.611614 -0.04225,0.168986 -0.132258,0.322807 -0.183484,0.489291 -0.03355,0.10904 -0.08029,0.588722 -0.122324,0.672777 -0.0091,0.01823 -0.04674,-0.01442 -0.06116,0 -0.03058,0.03058 0.03058,0.152903 0,0.183483 -0.01442,0.01442 -0.04387,-0.0108 -0.06116,0 -0.722466,0.451544 -0.127031,0.236303 -1.100907,0.550456 -0.840997,0.271287 -1.247727,0.427677 -2.079487,0.489291 -0.264309,0.01958 -0.530617,-0.01707 -0.7951,0 -0.368461,0.02376 -0.732163,0.103412 -1.100907,0.122322 -0.773695,0.03968 -1.55103,0.04988 -2.324135,0 -0.287718,-0.01857 -0.569372,-0.09363 -0.85626,-0.122322 -1.270037,-0.127005 -0.685789,-0.01577 -1.957165,-0.06116 -0.35577,-0.0127 -0.904812,-0.137078 -1.284391,-0.06116 -0.555932,0.111189 -1.142219,0.120118 -1.712521,0.183486 -0.960144,0.106683 -1.907093,0.267107 -2.874589,0.305805 -1.879018,0.07516 0.284985,-0.07923 -0.978582,0.06116 -0.180576,0.02005 -0.370672,-0.02569 -0.550453,0 -0.352091,0.0503 -0.154065,0.08929 -0.550453,0.122322 -1.004975,0.08375 -2.056001,-0.0084 -3.058073,-0.06116 -0.955147,-0.05027 -1.92005,0.05966 -2.874588,0 -0.602559,-0.03766 -1.236882,-0.108741 -1.834843,-0.183486 -0.853058,-0.106632 -1.672659,-0.357769 -2.50762,-0.550452 -1.521797,-0.351184 0.294231,0.0843 -1.223229,-0.183483 -0.228912,-0.0404 -0.442663,-0.150612 -0.672776,-0.183486 -0.552807,-0.07897 -0.933958,0.08164 -1.467875,-0.244645 C 10.299194,33.425849 9.6768498,32.862895 9.1742174,32.293245 9.0204239,32.118945 8.9046917,31.912726 8.7460872,31.742792 8.6178386,31.605384 8.4382863,31.52022 8.3179572,31.375823 8.1252535,31.14458 8.0733576,30.819315 7.889827,30.580724 7.7843527,30.443609 7.6451811,30.33608 7.5228584,30.213757 7.3801482,30.030271 7.2298366,29.852456 7.0947282,29.663302 6.9660396,29.691613 6.9011299,29.25909 6.8500823,29.174011 6.8204148,29.124566 6.757427,29.101134 6.7277596,29.051689 6.6246673,28.879868 6.5697136,28.587835 6.4219523,28.440075 6.3897173,28.407839 6.3318643,28.411148 6.2996293,28.378912 6.2082137,28.287498 6.0382731,28.008156 5.9938221,27.88962 5.866076,27.548964 5.8497316,27.14326 5.8103378,26.788716 c -0.079053,-0.71148 -0.061162,-1.422812 -0.061162,-2.140652 0,-0.472996 0.031694,-0.942437 -0.061161,-1.406713 -0.1171191,-0.585596 -0.2320094,-1.1833 -0.3058073,-1.773682 -0.040875,-0.327003 -0.020307,-0.651738 -0.061161,-0.978583 -0.015994,-0.127944 -0.094352,-0.2411 -0.122323,-0.366969 C 5.0020973,19.2373 4.5871087,18.470831 4.5871087,17.553336 c 0,-0.107103 -0.129649,-0.848934 -0.061161,-0.917422 0.028832,-0.02883 0.085853,0.01824 0.1223227,0 0.5970396,-0.298519 0.866177,-0.252649 1.5901976,-0.366968 0.4502923,-0.0711 0.8942634,-0.180176 1.345552,-0.244646 1.5551637,-0.222166 0.1625256,0.09698 1.2843905,-0.183485 0.027825,-0.007 0.4783126,-0.133301 0.5504531,-0.06116 0.014415,0.01441 -0.018235,0.05204 0,0.06116 0.03647,0.01824 0.085853,-0.01823 0.1223227,0 0.018235,0.0091 -0.016962,0.04985 0,0.06116 0.053642,0.03576 0.128202,0.02799 0.1834846,0.06116 0.049446,0.02967 0.076192,0.08772 0.1223227,0.122323 0.1990854,0.149314 0.4077424,0.28542 0.6116144,0.428131 z"
       id="path1" />
    <path
       style="fill:none;stroke:#000000;stroke-width:1.365;stroke-opacity:1"
       d="M 4.1589785,30.397241 4.3424628,30.274918"
       id="path4" />
    <path
       style="fill:none;stroke:#ffffff;stroke-width:1.365"
       d="m 29.235172,35.167834 6.238468,3.792008"
       id="path2" />
    <path
       style="fill:none;stroke:#000000;stroke-width:1.365;stroke-opacity:1"
       d="m 29.78562,7.5840187 c 0,0.3693526 0.09655,0.753205 0.183483,1.1009061 0.08065,0.3225882 -0.10482,0.7252838 0,1.0397448 0.0091,0.027352 0.05416,0.03319 0.06116,0.061161 0.07899,0.3159634 8.9e-4,0.7906694 -0.06116,1.1009064 -0.04287,0.214344 0.03087,0.456671 0,0.672776 -0.0294,0.205819 -0.09292,0.405795 -0.122322,0.611614 -0.02325,0.162715 -0.05146,0.325209 -0.06116,0.489292 -0.01077,0.183168 0,0.366969 0,0.550453 0,0.02038 0.01823,0.05206 0,0.06116 -0.03647,0.01823 -0.08839,-0.02262 -0.122325,0 -0.03793,0.02528 -0.02114,0.100493 -0.06116,0.122323 -0.192765,0.105144 -0.417869,0.141315 -0.611613,0.244645 -0.115184,0.06143 -0.195675,0.174566 -0.305808,0.244646 -0.11538,0.07342 -0.249698,0.113124 -0.366969,0.183484 -0.235932,0.14156 -0.424892,0.365351 -0.672775,0.489292 -0.247621,0.12381 -0.438621,0.272025 -0.672777,0.42813 -0.197821,0.131882 -0.434893,0.207921 -0.611614,0.366969 -0.118354,0.106518 -0.193216,0.254377 -0.305807,0.366969 -0.19608,0.196079 -0.456064,0.43102 -0.672776,0.611614 -0.05647,0.04706 -0.137565,0.06492 -0.183485,0.122323 -0.04027,0.05034 -0.02089,0.133144 -0.06116,0.183484 -0.101098,0.126373 -0.412871,0.317314 -0.550453,0.489292 -0.576556,0.720694 0.487977,-0.487978 -0.366969,0.366969 -0.209846,0.209845 -0.264712,0.346421 -0.550453,0.489291 -0.228942,0.114471 -0.558694,-0.210737 -0.672776,-0.305807 -0.144395,-0.120329 -0.277762,-0.254193 -0.42813,-0.366969 -0.0951,-0.07133 -0.199481,-0.130324 -0.305807,-0.183484 -0.01823,-0.0091 -0.04675,0.01442 -0.06116,0 -0.01442,-0.01441 0.01696,-0.04985 0,-0.06116 -0.05364,-0.03576 -0.133144,-0.02089 -0.183484,-0.06116 -0.408956,-0.327167 0.129416,-0.05643 -0.244646,-0.305807 -0.196499,-0.130999 -0.429896,-0.207966 -0.611614,-0.366969 -0.07215,-0.06313 -0.29088,-0.33663 -0.428131,-0.42813 -0.385331,-0.256888 -0.826388,-0.434672 -1.223228,-0.672776 -0.155181,-0.09311 -0.347806,-0.192618 -0.489292,-0.305807 -0.122968,-0.09837 -0.202907,-0.264797 -0.366969,-0.305807 -0.03955,-0.0099 -0.08364,0.01289 -0.122323,0 -0.190903,-0.06363 0.02039,-0.04077 -0.06116,-0.122323 -0.307307,-0.30727 -0.06449,0.0096 -0.305807,-0.183485 -0.124337,-0.09947 -0.246074,-0.202182 -0.366969,-0.305807 -0.109454,-0.09382 -0.176868,-0.241337 -0.305807,-0.305807 -0.200714,-0.100357 -0.462824,-0.130549 -0.550454,-0.305807 -0.03262,-0.06524 0.03262,-0.179406 0,-0.244646 -0.10351,-0.207021 -0.06116,-0.487583 -0.06116,-0.733938 0,-0.401533 0.0574,-0.772526 0.122323,-1.162067 0.02489,-0.149335 -0.01643,-0.341442 0,-0.489292 0.02744,-0.246991 0.09511,-0.489 0.122323,-0.733937 0.01858,-0.167233 -0.05884,-0.4962513 0,-0.6727766 0.0091,-0.027352 0.05646,-0.032721 0.06116,-0.061161 0.04875,-0.2924736 0.01049,-0.6334768 -0.06116,-0.9174218 -1.114132,0.059161 0.233241,-0.5121012 0.122323,-0.7339373 -0.01289,-0.025788 -0.04077,-0.040774 -0.06116,-0.061161 0,-0.040774 0.01823,-0.085853 0,-0.1223229 -0.0091,-0.018235 -0.04078,0 -0.06116,0 -0.02039,-0.040774 -0.0501,-0.078097 -0.06116,-0.1223229 -0.0099,-0.039557 0.01289,-0.083641 0,-0.1223229 -0.02536,-0.076071 -0.188693,-0.099554 -0.244646,-0.1834843 -0.56151,-0.8422649 -1.984082,-0.6745837 -2.93575,-0.5504531 -0.186381,0.024311 -0.366665,0.08294 -0.550453,0.1223229 -0.101647,0.021782 -0.203267,0.044072 -0.305807,0.061161 -0.04022,0.0067 -0.09349,-0.028832 -0.122323,0 -0.01442,0.014416 0.0091,0.042927 0,0.061161 -0.09387,0.187739 -0.220559,0.3586454 -0.305807,0.5504531 -0.454158,1.0218557 0.116809,0.072188 -0.42813,1.1620675 -0.105429,0.2108571 -0.354691,0.4524559 -0.428131,0.672776 -0.01289,0.038682 0.01289,0.083641 0,0.1223229 -0.0091,0.027352 -0.05204,0.033809 -0.06116,0.061162 -0.01289,0.038682 0.0099,0.082766 0,0.1223229 -0.01106,0.044226 -0.04077,0.081549 -0.06116,0.1223229 -0.02039,0.061161 -0.04718,0.1205497 -0.06116,0.1834843 -0.109058,0.4907634 -0.01102,0.2275497 -0.122323,0.6727764 -0.03127,0.125089 -0.09704,0.240533 -0.122323,0.366968 -0.0196,0.09802 0.0196,0.207792 0,0.305808 -0.0089,0.0447 -0.04077,0.08155 -0.06116,0.122322 -0.02039,0.08155 -0.04927,0.161433 -0.06116,0.244646 -0.02854,0.199794 0.02854,0.411821 0,0.611615 -0.08638,0.604678 -0.06116,1.219798 -0.06116,1.834843 0,0.377474 -0.04675,0.788041 0,1.162068 0.02587,0.206978 0.0933,0.408457 0.122323,0.611614 0.01153,0.08073 -0.01978,0.165532 0,0.244646 0.02211,0.08845 0.10021,0.156194 0.122323,0.244646 0.01978,0.07911 -0.0224,0.166235 0,0.244646 0.04055,0.141924 0.194915,0.278939 0.244646,0.42813 0.02658,0.07974 0.02357,0.169462 0.06116,0.244646 0.02579,0.05158 0.100907,0.06878 0.122323,0.122323 0.02271,0.05679 -0.02271,0.126697 0,0.183484 0.02142,0.05354 0.09034,0.07434 0.122323,0.122323 0.101148,0.151723 0.148001,0.33466 0.244646,0.489291 0.06926,0.110816 0.241113,0.298742 0.305807,0.428131 0.02883,0.05766 0.02369,0.131023 0.06116,0.183484 0.100549,0.140768 0.289605,0.212241 0.366969,0.366969 0.01824,0.03647 -0.01823,0.08585 0,0.122323 0.02579,0.05157 0.0863,0.07729 0.122323,0.122322 0.122249,0.152812 0.188411,0.332764 0.305807,0.489292 0.53975,0.719666 -0.04472,-0.07256 0.489292,0.550453 0.180877,0.211023 0.34227,0.487725 0.550453,0.672776 0.08885,0.07898 0.209073,0.114389 0.305807,0.183484 0.185165,-0.150922 0.105202,0.166363 0.122323,0.183485 0.0292,0.0292 0.202184,0.09048 0.244646,0.122323 0.439933,0.329949 -0.129074,-0.06791 0.183484,0.244645 0.07878,0.07878 0.22221,0.06261 0.305807,0.122323 0.09385,0.06703 0.152384,0.17545 0.244646,0.244646 0.145879,0.109409 0.332929,0.150829 0.489292,0.244646 0.111938,0.06716 0.19719,0.172234 0.305807,0.244646 0.183484,0.122323 0.122323,0 0.366969,0.183484 0.09226,0.0692 0.153612,0.173842 0.244646,0.244646 0.09383,0.07298 0.216343,0.105204 0.305807,0.183484 0.07671,0.06713 0.118226,0.166337 0.183484,0.244646 0.09279,0.111349 0.377558,0.353641 0.489292,0.42813 0.05364,0.03576 0.131023,0.02369 0.183484,0.06116 0.09385,0.06703 0.158449,0.168026 0.244646,0.244645 0.820131,0.729006 -0.120447,-0.112245 0.550453,0.366969 0.245101,0.175072 0.441419,0.418817 0.672776,0.611615 0.05647,0.04706 0.122323,0.08155 0.183484,0.122323 0.08155,0.04077 0.173451,0.06537 0.244646,0.122322 0.421171,0.336937 0.273709,0.288746 0.550453,0.611615 0.601181,0.701378 -0.199286,-0.260447 0.366969,0.305807 0.103954,0.103955 0.156437,0.249358 0.244646,0.366969 0.09651,0.128676 0.274337,0.190018 0.366968,0.305807 0.06858,0.08573 0.06142,0.214458 0.122323,0.305807 0.195004,0.292506 0.404019,0.595266 0.550453,0.917422 0.05336,0.117383 0.06996,0.249142 0.122323,0.366969 0.02985,0.06717 0.09651,0.114658 0.122323,0.183484 0.0365,0.09734 0.02466,0.208472 0.06116,0.305807 0.02581,0.06883 0.09651,0.114658 0.122322,0.183485 0.0365,0.09733 0.03381,0.205516 0.06116,0.305807 0.137205,0.503084 0.308889,1.006316 0.366969,1.529036 0.08344,0.750972 0.125425,1.508206 0.183484,2.262974 0.03578,0.46514 -0.04641,0.942596 0,1.406713 0.01514,0.151374 0.107185,0.337918 0.122323,0.489292 0.01959,0.195915 -0.03259,0.416065 0,0.611614 0.08094,0.48564 0.06116,0.0035 0.06116,0.489292 0,0.237811 -0.02947,0.498212 0,0.733937 0.04611,0.368892 0.07652,0.734473 0.122323,1.100907 0.05013,0.401046 0.0038,0.82189 0.06116,1.223229 0.02099,0.146929 0.101333,0.281201 0.122323,0.42813 0.02593,0.181485 0.03099,0.36941 0.06116,0.550453 0.03797,0.227842 0.145961,0.447638 0.183484,0.672776 0.02314,0.138853 -0.02314,0.289277 0,0.42813 0.02026,0.121532 0.09224,0.246642 0.122323,0.366969 0.01483,0.05933 -0.04325,0.140236 0,0.183484 0.01442,0.01442 0.04078,0 0.06116,0 0.02039,0.02039 0.04517,0.03717 0.06116,0.06116 0.03576,0.05364 0.02089,0.133142 0.06116,0.183485 0.07204,0.09005 0.183522,0.146848 0.244645,0.244646 0.04455,0.07128 0.01946,0.171662 0.06116,0.244645 0.04291,0.0751 0.128111,0.117037 0.183484,0.183485 0.06526,0.07831 0.137897,0.153471 0.183485,0.244646 0.0091,0.01823 -0.01696,0.04985 0,0.06116 0.05364,0.03576 0.12672,0.0306 0.183484,0.06116 0.677933,0.365041 1.285282,0.777943 2.018328,1.039745 0.214275,0.07653 1.559948,0.487977 1.834843,0.550453 0.199794,0.04541 0.417241,-0.0036 0.611615,0.06116 0.02735,0.0091 0.03381,0.05204 0.06116,0.06116 0.329252,0.109751 0.478042,0.03891 0.856261,0.06116 0.67356,0.03962 0.276813,0.115175 0.795098,0 0.538526,-0.119672 0.841401,-0.462856 1.284391,-0.795098 0.663815,-0.497862 0.636371,-0.489779 1.039744,-1.162068 0.01483,-0.02472 0.05417,-0.03319 0.06116,-0.06116 0.03461,-0.138449 0,-0.285421 0,-0.428131 0,-0.48246 -0.0862,-0.665178 -0.244646,-1.100906 -0.150911,-0.415004 -0.290322,-0.825289 -0.489291,-1.223229 -0.142028,-0.284056 -0.286166,-0.572331 -0.428131,-0.85626 -0.06979,-0.139577 -0.137712,-0.168491 -0.183484,-0.305807 -0.05316,-0.15949 -0.06916,-0.329802 -0.122323,-0.489292 -0.0635,-0.190486 -0.186949,-0.358131 -0.244646,-0.550453 -0.03563,-0.11878 -0.02195,-0.249322 -0.06116,-0.366969 -0.02325,-0.06973 -0.09908,-0.113749 -0.122323,-0.183484 -0.01934,-0.05802 0.01199,-0.123511 0,-0.183484 -0.03045,-0.152249 -0.134386,-0.280834 -0.183484,-0.42813 -0.131077,-0.393229 -0.178008,-0.900993 -0.305808,-1.284391 -0.04325,-0.129743 -0.144186,-0.235975 -0.183484,-0.366969 -0.02343,-0.07811 0.01599,-0.16468 0,-0.244645 -0.0057,-0.02827 -0.05417,-0.03319 -0.06116,-0.06116 -0.01483,-0.05934 0.01483,-0.124149 0,-0.183484 -0.02663,-0.10651 -0.09851,-0.198634 -0.122323,-0.305807 -0.0864,-0.388801 0.126132,-0.113435 -0.06116,-0.550454 -0.02271,-0.053 -0.08155,-0.08155 -0.122323,-0.122322 -0.04077,-0.08155 -0.08641,-0.160844 -0.122323,-0.244646 -0.104993,-0.244986 -0.04168,-0.227889 -0.122322,-0.550453 -0.08169,-0.326757 -0.255774,-0.77569 -0.305808,-1.100906 -0.0217,-0.141051 0.01292,-0.286007 0,-0.428131 -0.01695,-0.186475 -0.150363,-0.446009 -0.183484,-0.611614 -0.01599,-0.07997 0.01459,-0.164413 0,-0.244646 -0.05651,-0.310788 -0.163339,-0.496972 -0.244646,-0.795099 -0.158298,-0.125454 -0.0262,-0.288275 -0.06116,-0.42813 -0.01098,-0.04391 -0.116239,-0.281468 -0.122323,-0.305807 -0.01483,-0.05934 0.01006,-0.123155 0,-0.183484 -0.02609,-0.156535 -0.139574,-0.296398 -0.183485,-0.428131 -0.380871,-1.142615 0.37065,0.711639 -0.244645,-0.672776 -0.122059,-0.274631 -0.0033,-0.132315 -0.122323,-0.489291 -0.07417,-0.222504 -0.06049,0.185844 -0.183485,-0.244646 -0.111214,-0.38925 -0.05192,-0.293033 -0.122323,-0.85626 -0.03076,-0.246105 -0.1033,-0.486648 -0.122322,-0.733938 -0.08021,-1.042793 0.191803,-2.032034 0.305807,-3.058072 0.01462,-0.131587 -0.03256,-0.297879 0,-0.42813 0.111792,-0.44717 0.290943,-1.423859 0.611614,-1.773682 0.423663,-0.462178 0.963044,-0.840721 1.406714,-1.284391 0.193946,-0.193946 0.356507,-0.417668 0.550453,-0.611614 0.153243,-0.153243 0.329536,-0.281689 0.489291,-0.42813 0.127521,-0.116895 0.289605,-0.212242 0.366969,-0.366969 0.0091,-0.01824 -0.01442,-0.04675 0,-0.06116 0.01442,-0.01442 0.04077,0 0.06116,0 0.04077,-0.06116 0.08336,-0.12115 0.122323,-0.183484 0.271081,-0.433729 0.531614,-0.873463 0.733938,-1.345552 0.1112,-0.259467 0.123421,-0.585975 0.183484,-0.85626 0.0638,-0.287113 0.178445,-0.569391 0.244646,-0.856261 0.09758,-0.422869 0.108436,-0.859119 0.183484,-1.28439 0.02922,-0.165559 0.09468,-0.323462 0.122323,-0.489292 0.05697,-0.34183 0,-0.758615 0,-1.100906 0,-0.334459 0.05484,-0.710688 0,-1.039744 -0.01648,-0.09887 -0.172433,-0.4450888 -0.183484,-0.4892919 -0.02967,-0.1186707 0.02399,-0.2470213 0,-0.3669687 -0.01788,-0.089404 -0.09349,-0.1581505 -0.122323,-0.2446458 -0.01289,-0.038682 0.02883,-0.093491 0,-0.1223229 -0.01442,-0.014416 -0.04675,0.014416 -0.06116,0 C 33.747561,8.9160121 33.723729,8.6101436 33.638798,8.4402801 33.492983,8.1486511 33.230808,7.9301071 33.088345,7.6451813 33.002719,7.4739292 32.990486,7.2659803 32.90486,7.0947282 32.768903,6.8228128 32.568497,6.4525574 32.354407,6.2384679 32.272859,6.1569193 32.173733,6.0897801 32.109761,5.9938221 31.924058,5.7152666 31.765657,5.1987233 31.375824,5.1987233 c -0.06116,0 -0.12878,-0.027352 -0.183484,0 -0.04078,0.020387 -0.09009,0.028926 -0.122323,0.061161 -0.01442,0.014416 0.01696,0.049853 0,0.061161 -0.107285,0.071523 -0.259685,0.0508 -0.366969,0.1223229 -0.07197,0.047979 -0.108385,0.1405706 -0.183484,0.1834843 -0.07298,0.041705 -0.169462,0.023569 -0.244646,0.061161 -0.01824,0.00912 0.01442,0.046746 0,0.061161 -0.03224,0.032235 -0.08155,0.040774 -0.122323,0.061161 -0.06116,0.1019357 -0.106121,0.2155495 -0.183484,0.3058072 -0.04784,0.055811 -0.137565,0.064924 -0.183485,0.1223229 -0.04027,0.050343 -0.03233,0.1258208 -0.06116,0.1834844 -0.03775,0.075493 -0.257765,0.2969957 -0.244646,0.3669687 0.05233,0.2790957 0.405506,0.5292186 0.305801,0.7950977 -0.08162,0.2176472 -0.461158,0.087297 -0.67277,0.1834855 -0.03712,0.016873 0.0099,0.082766 0,0.1223229 -0.01106,0.044226 -0.04077,0.081549 -0.06116,0.1223229"
       id="path10" />
  </g>
</svg>
